HIERARCHY
ROOT mixamorig1:Hips
{
	OFFSET -0.000023 99.754364 3.007850
	CHANNELS 6 Xposition Yposition Zposition Xrotation Yrotation Zrotation
	JOINT mixamorig1:Spine
	{
		OFFSET 0.000000 9.717224 -1.180211
		CHANNELS 3 Xrotation Yrotation Zrotation
		JOINT mixamorig1:Spine1
		{
			OFFSET 0.000000 11.336823 -1.376936
			CHANNELS 3 Xrotation Yrotation Zrotation
			JOINT mixamorig1:Spine2
			{
				OFFSET 0.000000 12.956345 -1.573657
				CHANNELS 3 Xrotation Yrotation Zrotation
				JOINT mixamorig1:Neck
				{
					OFFSET 0.000000 14.575974 -1.770441
					CHANNELS 3 Xrotation Yrotation Zrotation
					JOINT mixamorig1:Head
					{
						OFFSET 0.000000 6.720200 1.972157
						CHANNELS 3 Xrotation Yrotation Zrotation
						JOINT mixamorig1:HeadTop_End
						{
							OFFSET 0.000000 20.999847 6.162758
							CHANNELS 3 Xrotation Yrotation Zrotation
							End Site
							{
								OFFSET 0.000000 21.885452 -0.000004
							}
						}
					}
				}
				JOINT mixamorig1:LeftShoulder
				{
					OFFSET 6.140116 12.877853 -1.799548
					CHANNELS 3 Xrotation Yrotation Zrotation
					JOINT mixamorig1:LeftArm
					{
						OFFSET 12.545031 -3.431427 -0.058010
						CHANNELS 3 Xrotation Yrotation Zrotation
						JOINT mixamorig1:LeftForeArm
						{
							OFFSET 25.447281 -1.876373 -1.505625
							CHANNELS 3 Xrotation Yrotation Zrotation
							JOINT mixamorig1:LeftHand
							{
								OFFSET 23.367504 0.877640 0.971305
								CHANNELS 3 Xrotation Yrotation Zrotation
								JOINT mixamorig1:LeftHandThumb1
								{
									OFFSET 3.575478 -1.761887 3.039434
									CHANNELS 3 Xrotation Yrotation Zrotation
									JOINT mixamorig1:LeftHandThumb2
									{
										OFFSET 2.860405 -1.409454 2.431552
										CHANNELS 3 Xrotation Yrotation Zrotation
										JOINT mixamorig1:LeftHandThumb3
										{
											OFFSET 2.578941 -1.801514 1.750709
											CHANNELS 3 Xrotation Yrotation Zrotation
											JOINT mixamorig1:LeftHandThumb4
											{
												OFFSET 2.408989 -1.461151 1.064221
												CHANNELS 3 Xrotation Yrotation Zrotation
												End Site
												{
													OFFSET 2.176476 -1.503357 1.440013
												}
											}
										}
									}
								}
								JOINT mixamorig1:LeftHandIndex1
								{
									OFFSET 11.357018 -1.306473 4.439679
									CHANNELS 3 Xrotation Yrotation Zrotation
									JOINT mixamorig1:LeftHandIndex2
									{
										OFFSET 3.215240 -0.390930 0.624045
										CHANNELS 3 Xrotation Yrotation Zrotation
										JOINT mixamorig1:LeftHandIndex3
										{
											OFFSET 2.938980 -0.735489 0.560646
											CHANNELS 3 Xrotation Yrotation Zrotation
											JOINT mixamorig1:LeftHandIndex4
											{
												OFFSET 2.552437 -0.779205 0.483288
												CHANNELS 3 Xrotation Yrotation Zrotation
												End Site
												{
													OFFSET 2.555870 -0.777603 0.467434
												}
											}
										}
									}
								}
								JOINT mixamorig1:LeftHandMiddle1
								{
									OFFSET 12.195602 -0.657242 2.108765
									CHANNELS 3 Xrotation Yrotation Zrotation
									JOINT mixamorig1:LeftHandMiddle2
									{
										OFFSET 3.379944 -0.547394 0.236206
										CHANNELS 3 Xrotation Yrotation Zrotation
										JOINT mixamorig1:LeftHandMiddle3
										{
											OFFSET 3.043900 -0.829651 0.195068
											CHANNELS 3 Xrotation Yrotation Zrotation
											JOINT mixamorig1:LeftHandMiddle4
											{
												OFFSET 2.806625 -0.600723 0.188473
												CHANNELS 3 Xrotation Yrotation Zrotation
												End Site
												{
													OFFSET 2.806618 -0.600739 0.188510
												}
											}
										}
									}
								}
								JOINT mixamorig1:LeftHandRing1
								{
									OFFSET 12.563576 -0.458878 -0.154891
									CHANNELS 3 Xrotation Yrotation Zrotation
									JOINT mixamorig1:LeftHandRing2
									{
										OFFSET 2.596565 -0.829819 0.032336
										CHANNELS 3 Xrotation Yrotation Zrotation
										JOINT mixamorig1:LeftHandRing3
										{
											OFFSET 2.548286 -0.608398 0.044838
											CHANNELS 3 Xrotation Yrotation Zrotation
											JOINT mixamorig1:LeftHandRing4
											{
												OFFSET 2.167870 -0.507812 0.038965
												CHANNELS 3 Xrotation Yrotation Zrotation
												End Site
												{
													OFFSET 2.167732 -0.508163 0.042114
												}
											}
										}
									}
								}
								JOINT mixamorig1:LeftHandPinky1
								{
									OFFSET 11.341652 -0.310532 -2.253323
									CHANNELS 3 Xrotation Yrotation Zrotation
									JOINT mixamorig1:LeftHandPinky2
									{
										OFFSET 2.648827 -0.669128 -0.120024
										CHANNELS 3 Xrotation Yrotation Zrotation
										JOINT mixamorig1:LeftHandPinky3
										{
											OFFSET 2.075249 -0.703857 -0.105192
											CHANNELS 3 Xrotation Yrotation Zrotation
											JOINT mixamorig1:LeftHandPinky4
											{
												OFFSET 1.850784 -0.684036 -0.097376
												CHANNELS 3 Xrotation Yrotation Zrotation
												End Site
												{
													OFFSET 1.850731 -0.683411 -0.102854
												}
											}
										}
									}
								}
							}
						}
					}
				}
				JOINT mixamorig1:RightShoulder
				{
					OFFSET -6.140133 12.877823 -1.741391
					CHANNELS 3 Xrotation Yrotation Zrotation
					JOINT mixamorig1:RightArm
					{
						OFFSET -12.545002 -3.431366 0.058123
						CHANNELS 3 Xrotation Yrotation Zrotation
						JOINT mixamorig1:RightForeArm
						{
							OFFSET -25.447330 -1.876465 -1.671036
							CHANNELS 3 Xrotation Yrotation Zrotation
							JOINT mixamorig1:RightHand
							{
								OFFSET -23.367435 0.877640 0.912149
								CHANNELS 3 Xrotation Yrotation Zrotation
								JOINT mixamorig1:RightHandThumb1
								{
									OFFSET -3.655281 -1.787811 3.110017
									CHANNELS 3 Xrotation Yrotation Zrotation
									JOINT mixamorig1:RightHandThumb2
									{
										OFFSET -2.924309 -1.430252 2.488113
										CHANNELS 3 Xrotation Yrotation Zrotation
										JOINT mixamorig1:RightHandThumb3
										{
											OFFSET -2.528549 -1.776962 1.706924
											CHANNELS 3 Xrotation Yrotation Zrotation
											JOINT mixamorig1:RightHandThumb4
											{
												OFFSET -2.443375 -1.162323 1.073468
												CHANNELS 3 Xrotation Yrotation Zrotation
												End Site
												{
													OFFSET -2.204521 -1.202744 1.472025
												}
											}
										}
									}
								}
								JOINT mixamorig1:RightHandIndex1
								{
									OFFSET -11.888382 -1.247833 4.755188
									CHANNELS 3 Xrotation Yrotation Zrotation
									JOINT mixamorig1:RightHandIndex2
									{
										OFFSET -3.042244 -0.516434 0.442817
										CHANNELS 3 Xrotation Yrotation Zrotation
										JOINT mixamorig1:RightHandIndex3
										{
											OFFSET -2.738869 -0.708374 0.392164
											CHANNELS 3 Xrotation Yrotation Zrotation
											JOINT mixamorig1:RightHandIndex4
											{
												OFFSET -2.432571 -0.620773 0.348507
												CHANNELS 3 Xrotation Yrotation Zrotation
												End Site
												{
													OFFSET -2.433441 -0.620270 0.343348
												}
											}
										}
									}
								}
								JOINT mixamorig1:RightHandMiddle1
								{
									OFFSET -12.008347 -0.748550 2.098396
									CHANNELS 3 Xrotation Yrotation Zrotation
									JOINT mixamorig1:RightHandMiddle2
									{
										OFFSET -3.442291 -0.415817 0.287318
										CHANNELS 3 Xrotation Yrotation Zrotation
										JOINT mixamorig1:RightHandMiddle3
										{
											OFFSET -3.106178 -0.837677 0.240102
											CHANNELS 3 Xrotation Yrotation Zrotation
											JOINT mixamorig1:RightHandMiddle4
											{
												OFFSET -2.855728 -0.604996 0.227592
												CHANNELS 3 Xrotation Yrotation Zrotation
												End Site
												{
													OFFSET -2.855972 -0.604736 0.225131
												}
											}
										}
									}
								}
								JOINT mixamorig1:RightHandRing1
								{
									OFFSET -12.328026 -0.608994 -0.015787
									CHANNELS 3 Xrotation Yrotation Zrotation
									JOINT mixamorig1:RightHandRing2
									{
										OFFSET -2.763496 -0.569153 -0.029507
										CHANNELS 3 Xrotation Yrotation Zrotation
										JOINT mixamorig1:RightHandRing3
										{
											OFFSET -2.573975 -0.772354 -0.042469
											CHANNELS 3 Xrotation Yrotation Zrotation
											JOINT mixamorig1:RightHandRing4
											{
												OFFSET -2.323860 -0.456833 -0.023427
												CHANNELS 3 Xrotation Yrotation Zrotation
												End Site
												{
													OFFSET -2.323814 -0.457275 -0.019363
												}
											}
										}
									}
								}
								JOINT mixamorig1:RightHandPinky1
								{
									OFFSET -11.463135 -0.329407 -2.202621
									CHANNELS 3 Xrotation Yrotation Zrotation
									JOINT mixamorig1:RightHandPinky2
									{
										OFFSET -2.569016 -0.599854 -0.108848
										CHANNELS 3 Xrotation Yrotation Zrotation
										JOINT mixamorig1:RightHandPinky3
										{
											OFFSET -2.016190 -0.737000 -0.102787
											CHANNELS 3 Xrotation Yrotation Zrotation
											JOINT mixamorig1:RightHandPinky4
											{
												OFFSET -1.796242 -0.576553 -0.085258
												CHANNELS 3 Xrotation Yrotation Zrotation
												End Site
												{
													OFFSET -1.796211 -0.576279 -0.087722
												}
											}
										}
									}
								}
							}
						}
					}
				}
			}
		}
	}
	JOINT mixamorig1:LeftUpLeg
	{
		OFFSET 8.078197 -5.402374 -0.535866
		CHANNELS 3 Xrotation Yrotation Zrotation
		JOINT mixamorig1:LeftLeg
		{
			OFFSET 3.743073 -42.540520 -2.695453
			CHANNELS 3 Xrotation Yrotation Zrotation
			JOINT mixamorig1:LeftFoot
			{
				OFFSET 3.359008 -41.940849 -2.882240
				CHANNELS 3 Xrotation Yrotation Zrotation
				JOINT mixamorig1:LeftToeBase
				{
					OFFSET 1.133368 -9.116436 13.321875
					CHANNELS 3 Xrotation Yrotation Zrotation
					JOINT mixamorig1:LeftToe_End
					{
						OFFSET 0.591574 -0.054443 6.177378
						CHANNELS 3 Xrotation Yrotation Zrotation
						End Site
						{
							OFFSET 0.591574 -0.054443 6.177376
						}
					}
				}
			}
		}
	}
	JOINT mixamorig1:RightUpLeg
	{
		OFFSET -8.078202 -5.402405 -0.751774
		CHANNELS 3 Xrotation Yrotation Zrotation
		JOINT mixamorig1:RightLeg
		{
			OFFSET -3.743069 -42.540482 -2.464511
			CHANNELS 3 Xrotation Yrotation Zrotation
			JOINT mixamorig1:RightFoot
			{
				OFFSET -3.359002 -41.940781 -2.968969
				CHANNELS 3 Xrotation Yrotation Zrotation
				JOINT mixamorig1:RightToeBase
				{
					OFFSET -1.133408 -9.116797 13.416489
					CHANNELS 3 Xrotation Yrotation Zrotation
					JOINT mixamorig1:RightToe_End
					{
						OFFSET -0.591589 -0.054615 6.151403
						CHANNELS 3 Xrotation Yrotation Zrotation
						End Site
						{
							OFFSET -0.591589 -0.054615 6.151402
						}
					}
				}
			}
		}
	}
}
MOTION
Frames: 4
Frame Time: 0.041667
5.173750 98.537033 2.290651 0.313191 -2.662311 5.447108 3.888479 -0.160250 -0.333840 1.362188 -0.309840 -1.536428 -3.131596 -0.300141 -2.049826 -4.196127 0.557916 -3.354007 1.979874 0.996284 0.671427 0.000001 0.000000 0.000000 5.887679 -14.299759 -7.406723 5.057279 1.978159 -66.165313 -1.745223 -21.852014 -6.674074 29.134346 3.469787 3.683030 27.846656 7.396816 28.430563 -11.565141 24.073208 -7.339104 4.594742 -21.476384 -0.362594 -0.000015 0.000003 0.000003 10.166375 3.424492 -3.594262 2.817026 4.264119 -9.156600 0.315792 0.608156 -0.892735 0.000012 -0.000002 0.000008 1.228631 3.698371 -8.779820 3.790009 6.362398 -20.166765 2.882235 3.779566 -18.520073 -0.000004 -0.000003 -0.000002 1.282746 3.626479 -17.307228 2.597620 4.399915 -20.671762 1.430025 2.945651 -12.171044 -0.000003 0.000004 0.000006 2.489729 5.563701 -16.967510 2.156787 6.690599 -23.809295 0.682785 2.362388 -4.807149 -0.000002 0.000001 0.000008 -0.395889 9.937211 -0.228176 0.917062 9.562476 71.006128 -3.462548 38.710476 7.537106 24.692389 20.015750 -24.967576 21.638032 -8.666815 -7.570757 -5.272520 2.787616 -22.037814 -15.385542 14.164005 19.674312 0.000002 -0.000013 0.000002 -0.482826 2.134753 2.898510 5.194267 -5.406808 20.869558 3.137042 -2.087849 16.940150 -0.000004 0.000000 0.000001 1.032258 -1.100954 17.064972 5.734474 -7.466377 29.228808 6.030008 -5.389876 33.678222 0.000009 0.000004 0.000003 2.247860 -3.404759 29.421480 2.158689 -5.182630 18.400555 1.041582 -3.159556 25.767187 -0.000008 -0.000003 -0.000004 2.656961 -4.261037 32.726664 4.755196 -9.717637 41.541890 2.789886 -8.205975 45.093209 -0.000003 -0.000002 0.000003 -10.530489 6.611882 -13.374491 16.848214 0.153008 -0.448887 -4.491139 -1.303046 9.375511 -3.878020 0.000005 -0.000001 -0.000000 0.000001 0.000002 -27.383950 -2.564455 -1.523371 60.007392 4.900730 -2.390465 4.905889 -14.274954 0.322904 -5.453893 -0.312767 3.217165 0.000011 0.000005 0.000001 
4.892099 98.659470 1.854948 0.820882 -1.147348 4.491409 3.295143 -0.607091 0.149018 1.409536 -1.372686 -1.154488 -3.107619 -1.351342 -1.700510 -3.769842 0.668470 -3.147305 2.187713 1.151379 0.780113 0.000002 0.000000 0.000000 6.134127 -16.430230 -5.692454 3.223133 -1.389846 -64.818618 -1.935286 -24.045980 -6.746913 25.780245 1.694953 8.467272 28.117133 7.516658 27.742919 -11.945112 23.369724 -7.109876 5.242539 -22.326514 2.484372 -0.000004 -0.000006 -0.000002 9.230563 3.180749 -0.221649 2.826396 4.270593 -9.190058 0.324518 0.615957 -0.926078 0.000006 0.000000 0.000002 0.925903 3.174888 -6.872387 3.774415 6.348320 -20.089649 2.867409 3.764743 -18.443285 0.000003 -0.000003 0.000005 1.117713 3.376872 -15.708453 2.597379 4.399669 -20.670596 1.429923 2.945488 -12.170335 -0.000010 0.000000 0.000003 2.044071 4.935183 -15.575903 2.170738 6.714378 -23.914292 0.690168 2.388496 -4.910900 0.000006 -0.000002 0.000002 -0.499050 9.288048 0.700722 2.742229 6.196389 71.332774 -3.109511 35.667121 7.324482 28.765915 18.944552 -24.423104 22.138653 -8.714895 -7.304178 -5.072519 3.155975 -22.240839 -15.309635 13.962922 19.654033 -0.000014 0.000003 -0.000003 -0.453033 1.916422 2.437111 5.242350 -5.430918 21.054401 3.179793 -2.117504 17.122504 0.000003 0.000006 0.000001 1.112734 -1.355183 16.203060 5.728049 -7.462772 29.199752 6.023824 -5.386776 33.650908 -0.000003 0.000008 0.000009 2.232671 -3.385681 29.032436 2.150187 -5.169997 18.336293 1.034034 -3.146016 25.703272 0.000007 0.000008 -0.000002 2.662298 -4.271681 32.463090 4.769530 -9.730324 41.622445 2.803471 -8.220965 45.172993 -0.000006 -0.000002 -0.000001 -7.649656 7.595489 -11.971061 16.832310 -2.914195 -0.646546 -6.758668 -1.611226 9.504382 -4.665561 0.000011 -0.000001 0.000000 0.000001 0.000002 -31.953025 -2.595489 0.254686 51.610252 5.697467 -2.796755 3.419302 -16.387540 1.027219 -8.013461 -0.043733 0.298135 0.000001 0.000001 0.000002 
4.435668 98.569603 1.515006 1.116462 0.788650 3.061609 2.714322 -1.030068 0.774730 1.636654 -2.399843 -0.754088 -2.915116 -2.373452 -1.350104 -3.736306 0.558761 -2.629126 2.169733 1.167121 1.041963 -0.000001 -0.000000 0.000000 6.661274 -18.758008 -3.052550 1.365513 -3.244031 -63.604914 -2.210855 -27.098842 -6.864032 22.169411 -1.187472 10.117774 28.400685 7.684857 27.009232 -12.288826 22.626147 -7.070075 5.371758 -23.116797 3.105973 -0.000016 0.000008 0.000006 8.450549 3.137856 1.478778 2.826689 4.270788 -9.191123 0.324881 0.616285 -0.927445 -0.000001 -0.000001 0.000001 0.835792 3.018080 -6.248924 3.773950 6.347913 -20.087354 2.866934 3.764278 -18.440850 0.000009 0.000000 -0.000006 1.080739 3.324856 -15.085757 2.597496 4.399823 -20.671409 1.430094 2.945770 -12.171601 0.000004 0.000002 0.000007 1.901305 4.718742 -15.175188 2.173272 6.718677 -23.933297 0.691499 2.393219 -4.929678 0.000003 0.000005 0.000002 -0.669584 7.757241 2.380772 4.884674 3.110735 70.791325 -2.749076 32.300303 7.123845 31.797959 16.785989 -22.890413 22.283494 -9.316317 -7.368044 -4.679007 3.919939 -22.416022 -15.203362 13.681525 19.626608 -0.000002 -0.000012 0.000003 -0.495890 1.969204 0.984548 5.282829 -5.451092 21.209802 3.215804 -2.142303 17.275731 0.000007 0.000004 -0.000003 1.089823 -1.460762 14.369178 5.723556 -7.460240 29.179456 6.019709 -5.384719 33.632603 0.000002 -0.000001 -0.000002 2.177910 -3.318893 27.882156 2.134281 -5.146104 18.215350 1.019899 -3.120519 25.582996 0.000004 0.000004 0.000007 2.713127 -4.361590 31.202442 4.765001 -9.726298 41.596911 2.799161 -8.216210 45.147704 0.000004 -0.000004 0.000004 -5.208318 8.632306 -9.576032 17.817438 -5.553777 -0.800061 -9.013344 -3.734135 9.363394 -5.839256 0.000013 0.000000 -0.000000 0.000001 0.000004 -35.982164 -4.127041 1.850813 40.792082 6.059976 -3.562857 4.227898 -17.315221 1.832047 -1.379771 -0.000011 0.000002 -0.000001 0.000001 -0.000000 
4.009545 98.099785 1.408729 1.093242 2.634678 2.022421 2.233121 -1.437676 0.836206 2.147100 -3.147485 -0.249760 -2.418047 -3.147708 -0.901474 -4.162004 0.382079 -2.205435 1.915156 1.103607 1.238499 0.000005 0.000001 -0.000000 7.365416 -21.197665 -0.146017 -0.186708 -3.630798 -62.288190 -2.625833 -31.398301 -7.064359 16.444777 -3.462990 10.234018 28.696493 7.893698 26.236304 -12.624310 21.836960 -7.126017 5.333764 -24.151988 3.068101 -0.000006 -0.000007 0.000012 7.738440 3.265063 2.120142 2.814491 4.262421 -9.147707 0.313733 0.606290 -0.884744 -0.000006 0.000000 0.000003 0.808765 2.907305 -6.278703 3.776921 6.350574 -20.102044 2.869651 3.766994 -18.454927 -0.000001 0.000002 -0.000005 1.135373 3.421913 -15.022957 2.597736 4.400098 -20.672635 1.430312 2.946134 -12.173117 0.000003 -0.000001 -0.000001 1.839803 4.603612 -15.258844 2.165738 6.705880 -23.876822 0.687525 2.379180 -4.873877 0.000003 -0.000003 0.000013 -0.804492 5.607809 4.154578 7.768024 0.239493 69.779173 -2.492903 29.743517 6.992461 33.298183 13.910722 -19.838261 22.617739 -10.276033 -7.375094 -4.273812 5.229914 -22.720477 -15.075838 13.344096 19.595102 0.000003 -0.000010 -0.000003 -0.591956 2.377918 -1.038090 5.380968 -5.499364 21.585793 3.303202 -2.201949 17.646632 -0.000000 -0.000002 0.000001 0.976542 -1.410988 12.089385 5.714891 -7.455401 29.140411 6.011431 -5.380562 33.596027 0.000003 -0.000000 0.000001 2.021519 -3.120051 26.066613 2.136054 -5.148735 18.228689 1.021439 -3.123309 25.596124 -0.000001 -0.000003 -0.000003 2.614266 -4.277461 29.785963 4.809285 -9.765186 41.845379 2.841137 -8.262376 45.393792 -0.000003 -0.000001 0.000001 -2.764533 9.605383 -7.260396 19.351633 -5.468882 -0.970913 -11.305750 -8.100627 8.742608 -7.600166 0.000017 -0.000003 -0.000000 -0.000000 0.000002 -38.426333 -7.324646 2.319341 28.414497 7.233962 -4.155087 3.504369 -13.966630 1.665185 -2.722178 -0.000011 0.000006 0.000000 0.000000 0.000002 
